<mxfile host="Electron" modified="2024-05-19T16:34:08.408Z" agent="Mozilla/5.0 (Windows NT 10.0; Win64; x64) AppleWebKit/537.36 (KHTML, like Gecko) draw.io/24.4.0 Chrome/120.0.6099.109 Electron/28.1.0 Safari/537.36" etag="14bFxdu_PtJytcD6OW6G" version="24.4.0" type="device">
  <diagram name="Page-1" id="nYKNShxSaAUHvMM2I3pt">
    <mxGraphModel dx="732" dy="547" grid="1" gridSize="10" guides="1" tooltips="1" connect="1" arrows="1" fold="1" page="1" pageScale="1" pageWidth="850" pageHeight="1100" math="0" shadow="0">
      <root>
        <mxCell id="0" />
        <mxCell id="1" parent="0" />
        <mxCell id="0ANhI7mhSFFfcl_xUmmB-1" value="&lt;font style=&quot;font-size: 16px;&quot;&gt;sd BatDauGame&lt;/font&gt;" style="shape=umlFrame;whiteSpace=wrap;html=1;pointerEvents=0;width=140;height=50;" vertex="1" parent="1">
          <mxGeometry x="160" y="140" width="600" height="470" as="geometry" />
        </mxCell>
        <mxCell id="0ANhI7mhSFFfcl_xUmmB-3" value=":UI" style="shape=umlLifeline;perimeter=lifelinePerimeter;whiteSpace=wrap;html=1;container=1;dropTarget=0;collapsible=0;recursiveResize=0;outlineConnect=0;portConstraint=eastwest;newEdgeStyle={&quot;curved&quot;:0,&quot;rounded&quot;:0};" vertex="1" parent="1">
          <mxGeometry x="400" y="220" width="100" height="300" as="geometry" />
        </mxCell>
        <mxCell id="0ANhI7mhSFFfcl_xUmmB-7" value="" style="html=1;points=[[0,0,0,0,5],[0,1,0,0,-5],[1,0,0,0,5],[1,1,0,0,-5]];perimeter=orthogonalPerimeter;outlineConnect=0;targetShapes=umlLifeline;portConstraint=eastwest;newEdgeStyle={&quot;curved&quot;:0,&quot;rounded&quot;:0};" vertex="1" parent="0ANhI7mhSFFfcl_xUmmB-3">
          <mxGeometry x="45" y="75" width="10" height="135" as="geometry" />
        </mxCell>
        <mxCell id="0ANhI7mhSFFfcl_xUmmB-4" value=":System" style="shape=umlLifeline;perimeter=lifelinePerimeter;whiteSpace=wrap;html=1;container=1;dropTarget=0;collapsible=0;recursiveResize=0;outlineConnect=0;portConstraint=eastwest;newEdgeStyle={&quot;curved&quot;:0,&quot;rounded&quot;:0};" vertex="1" parent="1">
          <mxGeometry x="600" y="220" width="100" height="300" as="geometry" />
        </mxCell>
        <mxCell id="0ANhI7mhSFFfcl_xUmmB-11" value="" style="html=1;points=[[0,0,0,0,5],[0,1,0,0,-5],[1,0,0,0,5],[1,1,0,0,-5]];perimeter=orthogonalPerimeter;outlineConnect=0;targetShapes=umlLifeline;portConstraint=eastwest;newEdgeStyle={&quot;curved&quot;:0,&quot;rounded&quot;:0};" vertex="1" parent="0ANhI7mhSFFfcl_xUmmB-4">
          <mxGeometry x="45" y="75" width="10" height="135" as="geometry" />
        </mxCell>
        <mxCell id="0ANhI7mhSFFfcl_xUmmB-5" value="" style="shape=umlLifeline;perimeter=lifelinePerimeter;whiteSpace=wrap;html=1;container=1;dropTarget=0;collapsible=0;recursiveResize=0;outlineConnect=0;portConstraint=eastwest;newEdgeStyle={&quot;curved&quot;:0,&quot;rounded&quot;:0};participant=umlActor;size=40;" vertex="1" parent="1">
          <mxGeometry x="210" y="220" width="20" height="300" as="geometry" />
        </mxCell>
        <mxCell id="0ANhI7mhSFFfcl_xUmmB-10" value="" style="html=1;points=[[0,0,0,0,5],[0,1,0,0,-5],[1,0,0,0,5],[1,1,0,0,-5]];perimeter=orthogonalPerimeter;outlineConnect=0;targetShapes=umlLifeline;portConstraint=eastwest;newEdgeStyle={&quot;curved&quot;:0,&quot;rounded&quot;:0};" vertex="1" parent="0ANhI7mhSFFfcl_xUmmB-5">
          <mxGeometry x="5" y="75" width="10" height="135" as="geometry" />
        </mxCell>
        <mxCell id="0ANhI7mhSFFfcl_xUmmB-6" value="Player&lt;div&gt;&lt;br&gt;&lt;/div&gt;" style="text;html=1;align=center;verticalAlign=middle;resizable=0;points=[];autosize=1;strokeColor=none;fillColor=none;" vertex="1" parent="1">
          <mxGeometry x="190" y="255" width="60" height="40" as="geometry" />
        </mxCell>
        <mxCell id="0ANhI7mhSFFfcl_xUmmB-8" value="Nhan_nut_start()" style="html=1;verticalAlign=bottom;endArrow=block;curved=0;rounded=0;entryX=0;entryY=0;entryDx=0;entryDy=5;exitX=1;exitY=0;exitDx=0;exitDy=5;exitPerimeter=0;" edge="1" target="0ANhI7mhSFFfcl_xUmmB-7" parent="1" source="0ANhI7mhSFFfcl_xUmmB-10">
          <mxGeometry relative="1" as="geometry">
            <mxPoint x="370" y="300" as="sourcePoint" />
          </mxGeometry>
        </mxCell>
        <mxCell id="0ANhI7mhSFFfcl_xUmmB-12" value="Truyen_tin_hieu()" style="html=1;verticalAlign=bottom;endArrow=block;curved=0;rounded=0;" edge="1" parent="1">
          <mxGeometry width="80" relative="1" as="geometry">
            <mxPoint x="455" y="310" as="sourcePoint" />
            <mxPoint x="645" y="310" as="targetPoint" />
          </mxGeometry>
        </mxCell>
        <mxCell id="0ANhI7mhSFFfcl_xUmmB-13" value="return" style="html=1;verticalAlign=bottom;endArrow=open;dashed=1;endSize=8;curved=0;rounded=0;" edge="1" parent="1">
          <mxGeometry relative="1" as="geometry">
            <mxPoint x="645" y="410" as="sourcePoint" />
            <mxPoint x="455" y="410" as="targetPoint" />
            <Array as="points">
              <mxPoint x="550" y="410" />
            </Array>
          </mxGeometry>
        </mxCell>
        <mxCell id="0ANhI7mhSFFfcl_xUmmB-14" value="Chuyen_man_choi_va&lt;div&gt;_khoi_tao_doi_tuong()&lt;/div&gt;" style="html=1;verticalAlign=bottom;endArrow=block;curved=0;rounded=0;" edge="1" parent="1" target="0ANhI7mhSFFfcl_xUmmB-10">
          <mxGeometry width="80" relative="1" as="geometry">
            <mxPoint x="445" y="420" as="sourcePoint" />
            <mxPoint x="255" y="420" as="targetPoint" />
          </mxGeometry>
        </mxCell>
      </root>
    </mxGraphModel>
  </diagram>
</mxfile>
